<?xml version="1.0" encoding="UTF-8"?>
<svg id="Layer_2" data-name="Layer 2" xmlns="http://www.w3.org/2000/svg" viewBox="0 0 826 826">
  <defs>
    <style>
      .cls-1 {
        fill: #fff;
      }
    </style>
  </defs>
  <path d="M229.9,826h366.2c139.5,0,229.9-108.9,229.9-229.9V229.9C826,108.9,735.7,0,596.1,0H229.9C90.4,0,0,108.9,0,229.9v366.2C0,717.1,90.3,826,229.9,826h0Z"/>
  <g>
    <g>
      <polygon class="cls-1" points="431.34 419.85 306.78 587.9 361.07 587.9 485.62 419.85 361.07 251.8 306.78 251.8 431.34 419.85"/>
      <polygon class="cls-1" points="709.01 544.07 447.93 544.07 415.45 587.9 709.01 587.9 709.01 544.07"/>
      <polygon class="cls-1" points="110.99 587.9 254.51 587.9 287 544.07 110.99 544.07 110.99 587.9"/>
      <polygon class="cls-1" points="110.99 251.8 254.51 251.8 287 295.62 110.99 295.62 110.99 251.8"/>
    </g>
    <circle class="cls-1" cx="205.98" cy="419.85" r="45.55"/>
  </g>
</svg>