<?xml version="1.0" encoding="UTF-8"?>
<svg id="Layer_2" data-name="Layer 2" xmlns="http://www.w3.org/2000/svg" viewBox="0 0 838.47 826">
  <defs>
    <style>
      .cls-1 {
        fill: #fff;
      }
    </style>
  </defs>
  <path class="cls-1" d="M236.14,826h366.2c139.5,0,229.9-108.9,229.9-229.9V229.9C832.24,108.9,741.94,0,602.34,0H236.14C96.64,0,6.24,108.9,6.24,229.9v366.2c0,121,90.3,229.9,229.9,229.9h0Z"/>
  <g>
    <g>
      <polygon points="440.58 419.85 316.02 587.9 370.3 587.9 494.86 419.85 370.3 251.8 316.02 251.8 440.58 419.85"/>
      <polygon points="718.24 544.07 457.17 544.07 424.68 587.9 718.24 587.9 718.24 544.07"/>
      <polygon points="120.23 587.9 263.75 587.9 296.23 544.07 120.23 544.07 120.23 587.9"/>
      <polygon points="120.23 251.8 263.75 251.8 296.23 295.62 120.23 295.62 120.23 251.8"/>
    </g>
    <circle cx="215.21" cy="419.85" r="45.55"/>
  </g>
</svg>